<svg width="313" height="174" viewBox="0 0 313 174" fill="none" xmlns="http://www.w3.org/2000/svg">
<rect width="312.212" height="174" rx="12" fill="white"/>
<path d="M82.4221 78.1848C75.7221 67.9848 70.3221 57.1848 68.1221 45.2848C68.2221 43.3848 67.9221 41.3848 67.4221 39.8848C67.3221 39.3848 66.4221 39.4848 66.4221 40.0848C66.5221 41.6848 66.8221 43.1848 67.0221 44.7848C67.0221 45.9848 66.8221 47.2848 66.4221 48.4848C66.0221 49.7848 65.3221 51.0848 64.2221 51.8848C62.1221 53.3848 59.7221 49.6848 58.9221 48.3848C58.6221 47.8848 57.9221 48.1848 57.9221 48.6848C57.9221 49.5848 57.9221 58.2848 60.4221 56.5848C60.8221 56.2848 60.4221 55.7848 60.0221 55.9848C59.6221 56.1848 59.2221 52.6848 59.1221 50.4848C60.8221 52.6848 63.3221 54.4848 65.8221 52.1848C66.8221 51.2848 67.5221 49.8848 67.8221 48.4848C70.7221 61.4848 77.3221 74.1848 85.4221 84.4848C86.9221 86.3848 88.8221 88.5848 90.8221 91.0848C87.5221 90.9848 81.7221 96.6848 79.8221 98.8848C74.3221 104.985 67.3221 116.185 76.1221 122.785C84.7221 129.185 100.622 121.685 101.322 111.185C101.722 105.285 97.9221 99.3848 94.7221 94.7848C90.9221 88.9848 86.2221 83.9848 82.4221 78.1848ZM97.5221 117.485C93.1221 122.685 84.1221 125.185 77.9221 122.185C71.6221 119.085 72.7221 110.785 75.9221 105.785C78.2221 102.185 81.1221 98.9848 84.1221 95.9848C85.7221 94.4848 87.4221 92.8848 89.4221 91.9848C92.1221 90.7848 92.4221 93.7848 92.4221 95.6848C92.4221 96.2848 93.2221 96.1848 93.3221 95.6848C93.3221 95.0848 93.3221 94.4848 93.3221 93.9848C98.8221 101.485 103.422 110.485 97.5221 117.485Z" fill="#0B2034"/>
<path d="M201.722 114.985C196.522 109.385 191.722 103.485 187.122 97.3848C184.122 74.1848 172.622 52.6848 154.122 37.5848C153.722 37.1848 153.122 37.5848 153.222 38.1848C155.522 47.5848 159.722 56.2848 164.522 64.6848C169.722 73.7848 175.322 82.7848 181.222 91.4848C182.622 93.5848 184.122 95.6848 185.722 97.7848C186.322 102.985 186.622 108.285 186.322 113.685C185.122 112.785 183.622 111.785 183.122 110.685C182.922 110.285 182.622 110.085 182.222 110.185C178.622 111.185 175.422 111.185 172.822 108.085C172.422 107.585 171.822 107.685 171.622 108.285C170.122 112.685 166.722 112.585 163.822 109.685C163.522 109.385 163.122 109.485 162.922 109.685C159.522 113.585 155.422 112.585 151.422 110.485C151.222 110.385 150.822 110.385 150.622 110.585C147.622 114.885 142.922 113.885 139.022 111.385C138.722 111.185 138.322 111.385 138.122 111.685C135.822 116.885 129.122 114.685 126.222 111.185C125.722 110.585 124.822 111.185 125.222 111.785C127.222 115.385 121.822 114.185 120.122 113.585C118.222 112.885 116.122 111.685 115.122 109.885C115.022 109.485 114.822 109.085 114.622 108.785C114.322 108.285 113.622 108.685 113.822 109.185C113.922 109.585 114.122 110.085 114.322 110.485C114.722 111.885 114.622 113.485 112.722 113.585C111.622 113.685 110.522 113.185 109.522 112.785C106.622 111.485 104.522 107.685 104.222 104.685C104.222 104.585 104.022 104.585 104.022 104.685C104.122 108.985 107.322 114.185 112.022 114.485C114.322 114.685 115.322 113.585 115.422 112.185C117.422 114.185 120.522 115.285 123.022 115.685C125.222 115.985 126.622 115.185 126.722 113.685C129.322 115.885 133.122 117.385 136.122 115.885C137.022 115.485 137.822 114.885 138.422 113.985C139.122 112.785 140.922 114.385 142.122 114.885C144.422 115.685 146.722 115.485 148.922 114.485C150.222 113.785 150.622 112.085 152.222 112.885C153.522 113.485 154.922 113.985 156.322 114.185C158.922 114.685 161.222 113.585 163.022 111.885C163.122 111.785 167.322 113.985 168.522 113.785C170.522 113.385 171.622 111.885 172.422 110.185C175.122 112.785 178.222 113.185 181.922 112.285C183.022 114.085 184.822 114.785 186.422 116.285C186.922 116.785 187.622 116.285 187.722 115.685C188.022 110.685 187.922 105.685 187.422 100.685C197.322 113.985 208.922 126.785 222.122 136.485C222.522 136.785 223.122 136.285 222.722 135.885C215.622 128.585 208.322 122.085 201.722 114.985ZM182.322 90.6848C176.822 82.6848 171.722 74.3848 166.722 65.9848C161.822 57.6848 157.322 48.8848 154.722 39.4848C171.622 53.7848 182.022 73.4848 185.222 94.7848C184.322 93.4848 183.322 92.0848 182.322 90.6848Z" fill="#0B2034"/>
<path d="M253.822 103.385C245.622 102.185 237.322 101.585 229.022 102.185C221.522 102.685 212.622 104.285 207.322 110.185C207.022 110.485 207.422 111.085 207.822 110.785C220.122 100.685 239.022 104.185 253.622 104.685C254.422 104.585 254.522 103.485 253.822 103.385Z" fill="#0B2034"/>
</svg>
